<svg width="36" height="36" viewBox="0 0 36 36" fill="none" xmlns="http://www.w3.org/2000/svg">
<path d="M0 3.6C0 1.61178 1.61177 0 3.6 0H12.4C14.3882 0 16 1.61177 16 3.6V12.4C16 14.3882 14.3882 16 12.4 16H3.6C1.61178 16 0 14.3882 0 12.4V3.6Z" fill="#878787"/>
<path d="M0 23.6C0 21.6118 1.61177 20 3.6 20H12.4C14.3882 20 16 21.6118 16 23.6V32.4C16 34.3882 14.3882 36 12.4 36H3.6C1.61178 36 0 34.3882 0 32.4V23.6Z" fill="#878787"/>
<path d="M20 3.6C20 1.61178 21.6118 0 23.6 0H32.4C34.3882 0 36 1.61177 36 3.6V12.4C36 14.3882 34.3882 16 32.4 16H23.6C21.6118 16 20 14.3882 20 12.4V3.6Z" fill="#878787"/>
<path d="M20 23.6C20 21.6118 21.6118 20 23.6 20H32.4C34.3882 20 36 21.6118 36 23.6V32.4C36 34.3882 34.3882 36 32.4 36H23.6C21.6118 36 20 34.3882 20 32.4V23.6Z" fill="#878787"/>
</svg>
